<svg id="Layer_1" data-name="Layer 1" xmlns="http://www.w3.org/2000/svg" viewBox="0 0 911 331"><defs><style>.cls-1{fill:#fff;fill-rule:evenodd;}</style></defs><title>Artboard 1</title><path class="cls-1" d="M402.47,185h-.22l-13.4-54.07H372.69l-13.62,53.41h-.22l-12.42-53.41H329.18L350,209.37h17.47L380.5,156h.22L394,209.37h17.15l21.1-78.46H415.34Zm82.42-27.53a15.28,15.28,0,0,0-6.32-4.72A26.4,26.4,0,0,0,468.3,151a20.53,20.53,0,0,0-9,2.25,18.09,18.09,0,0,0-7.58,7.2h-.32V130.91H435.77v78.46h15.61V179.6c0-5.79.94-9.95,2.85-12.48s5-3.79,9.24-3.79q5.59,0,7.79,3.46c1.47,2.31,2.21,5.82,2.21,10.5v32.08h15.6V174.43a46,46,0,0,0-.93-9.61A18.4,18.4,0,0,0,484.89,157.45Zm64.28,39.29V167.18a13.61,13.61,0,0,0-2.31-8.3,15.67,15.67,0,0,0-5.93-4.89,26.46,26.46,0,0,0-8-2.36,64.08,64.08,0,0,0-8.68-.6,47.84,47.84,0,0,0-9.39.93,26.58,26.58,0,0,0-8.41,3.13,18.7,18.7,0,0,0-6.15,5.82,18.17,18.17,0,0,0-2.76,9.13h15.61q.43-4.62,3.08-6.6a11.8,11.8,0,0,1,7.25-2,25.19,25.19,0,0,1,3.9.28,8.79,8.79,0,0,1,3.19,1.09,6.35,6.35,0,0,1,2.2,2.31,8.43,8.43,0,0,1,.82,4,4.25,4.25,0,0,1-1.43,3.69,10.55,10.55,0,0,1-4.18,1.92,41.37,41.37,0,0,1-6,1q-3.4.33-6.92.88a67.16,67.16,0,0,0-7,1.48,19.55,19.55,0,0,0-6.15,2.8,14.29,14.29,0,0,0-4.4,5,16.47,16.47,0,0,0-1.7,8,17.76,17.76,0,0,0,1.48,7.58,14.27,14.27,0,0,0,4.12,5.28,17.23,17.23,0,0,0,6.16,3.07,27.79,27.79,0,0,0,7.58,1,35.38,35.38,0,0,0,10.32-1.53,20.45,20.45,0,0,0,8.8-5.39,23.73,23.73,0,0,0,.38,2.81,22,22,0,0,0,.72,2.68h15.82a13.4,13.4,0,0,1-1.54-5.27A59.79,59.79,0,0,1,549.17,196.74Zm-15.6-9.35a28.83,28.83,0,0,1-.28,3.53,11.63,11.63,0,0,1-1.48,4.33,10.28,10.28,0,0,1-3.73,3.68,13.78,13.78,0,0,1-7.15,1.55,19.57,19.57,0,0,1-3.62-.34,8.58,8.58,0,0,1-3.08-1.15,5.89,5.89,0,0,1-2.09-2.25,7.39,7.39,0,0,1-.77-3.52,7.61,7.61,0,0,1,.77-3.62,7,7,0,0,1,2-2.36,10.15,10.15,0,0,1,3-1.49,27.84,27.84,0,0,1,3.46-.88c1.25-.22,2.5-.4,3.74-.55s2.44-.33,3.57-.55a25.14,25.14,0,0,0,3.19-.82,6.92,6.92,0,0,0,2.47-1.37v5.81Zm44.72-51.86h-15.6v17h-9.45V163h9.45v33.51a14.57,14.57,0,0,0,1.43,6.93,10.14,10.14,0,0,0,3.9,4.07,16.25,16.25,0,0,0,5.71,1.92,45.61,45.61,0,0,0,6.87.49c1.54,0,3.11,0,4.73-.11a34.45,34.45,0,0,0,4.39-.44V197.29a20.06,20.06,0,0,1-2.31.33c-.8.07-1.64.11-2.52.11q-4,0-5.28-1.32t-1.31-5.28V163h11.43V152.56H578.3v-17Zm64.51,49a14.28,14.28,0,0,0-4.07-4.51,21.7,21.7,0,0,0-5.77-2.91,68.62,68.62,0,0,0-6.65-1.87c-2.2-.51-4.35-1-6.48-1.43a50.52,50.52,0,0,1-5.66-1.48,12.05,12.05,0,0,1-4-2.14,4.73,4.73,0,0,1-.66-6.22,5.86,5.86,0,0,1,2.15-1.59,9.68,9.68,0,0,1,2.79-.71,27.09,27.09,0,0,1,2.86-.17,15.64,15.64,0,0,1,7.26,1.6q3.08,1.59,3.4,6.1H642.8a18.64,18.64,0,0,0-2.7-8.74,17.71,17.71,0,0,0-5.65-5.55,23.86,23.86,0,0,0-7.75-3,45.5,45.5,0,0,0-9-.87,48.63,48.63,0,0,0-9,.82,24.5,24.5,0,0,0-7.91,2.86,15.7,15.7,0,0,0-5.67,5.55,17.07,17.07,0,0,0-2.14,9,12.11,12.11,0,0,0,1.54,6.32,13.28,13.28,0,0,0,4.06,4.28,22.48,22.48,0,0,0,5.77,2.75c2.16.7,4.38,1.3,6.65,1.82a91.76,91.76,0,0,1,13,3.51c3.12,1.17,4.67,2.93,4.67,5.27a5.84,5.84,0,0,1-1,3.46,7.48,7.48,0,0,1-2.48,2.2,11.94,11.94,0,0,1-3.29,1.21,16.55,16.55,0,0,1-3.47.39,18.06,18.06,0,0,1-4.44-.55,11.56,11.56,0,0,1-3.8-1.71,9,9,0,0,1-2.69-3,8.57,8.57,0,0,1-1.05-4.33H591.7a19,19,0,0,0,2.59,9.5,18.54,18.54,0,0,0,6,6.1,25.49,25.49,0,0,0,8.41,3.3,46.9,46.9,0,0,0,9.66,1,48.67,48.67,0,0,0,9.51-.93,24,24,0,0,0,8.29-3.24,18,18,0,0,0,5.89-6.1,18.24,18.24,0,0,0,2.24-9.4A13.23,13.23,0,0,0,642.8,184.49Zm31-53.58-29.67,78.46h17.36l6.15-17.47H697l5.93,17.47h17.92l-29.34-78.46Zm-1.65,48.14,10.21-28.8h.23l9.89,28.8Zm102.63-18.8a23.9,23.9,0,0,0-8-6.7A24.69,24.69,0,0,0,755.21,151a22.26,22.26,0,0,0-9.67,2.08,17.06,17.06,0,0,0-7.25,6.71h-.22v-7.26H723.23v76.71h15.61V202.35h.21a18.48,18.48,0,0,0,7.32,6.31,22,22,0,0,0,9.72,2.14A23.58,23.58,0,0,0,767,208.39a23.13,23.13,0,0,0,7.81-6.49,28,28,0,0,0,4.67-9.33,39.33,39.33,0,0,0,1.54-11A43.47,43.47,0,0,0,779.5,170,28.37,28.37,0,0,0,774.77,160.25Zm-10,27.59a16.65,16.65,0,0,1-2.26,5.76,13.23,13.23,0,0,1-17,4,12.26,12.26,0,0,1-4.23-4,17.31,17.31,0,0,1-2.31-5.76,32,32,0,0,1-.71-6.7,35.45,35.45,0,0,1,.65-6.82,17.38,17.38,0,0,1,2.26-5.82,12.79,12.79,0,0,1,4.18-4.13,12.13,12.13,0,0,1,6.43-1.58,11.89,11.89,0,0,1,6.31,1.58,13.43,13.43,0,0,1,4.24,4.18,17.91,17.91,0,0,1,2.35,5.89,31.25,31.25,0,0,1,.72,6.7A34.12,34.12,0,0,1,764.78,187.84ZM841.69,170a28.35,28.35,0,0,0-4.72-9.73,24,24,0,0,0-8-6.7A24.61,24.61,0,0,0,817.4,151a22.25,22.25,0,0,0-9.66,2.08,17.18,17.18,0,0,0-7.26,6.7h-.21v-7.25H785.43v76.71H801V202.35h.22a18.52,18.52,0,0,0,7.31,6.31,22.12,22.12,0,0,0,9.73,2.14,23.61,23.61,0,0,0,10.93-2.41,23.09,23.09,0,0,0,7.8-6.49,27.83,27.83,0,0,0,4.67-9.33,39,39,0,0,0,1.54-11A43.07,43.07,0,0,0,841.69,170ZM827,187.84a16.44,16.44,0,0,1-2.25,5.76,12.56,12.56,0,0,1-4.18,4,12.72,12.72,0,0,1-17-4,17.52,17.52,0,0,1-2.31-5.76,32,32,0,0,1-.71-6.7,34.67,34.67,0,0,1,.67-6.82,16.75,16.75,0,0,1,2.25-5.82,12.86,12.86,0,0,1,4.17-4.13,12.13,12.13,0,0,1,6.43-1.58,11.93,11.93,0,0,1,6.32,1.58,13.4,13.4,0,0,1,4.23,4.18,17.71,17.71,0,0,1,2.36,5.89,31.25,31.25,0,0,1,.72,6.7A34.13,34.13,0,0,1,827,187.84Z"/><path class="cls-1" d="M182.91,50.68A111.88,111.88,0,0,0,87.09,220.3l-20.18,60,61.93-19.83a111.87,111.87,0,1,0,54.07-209.8Zm0,205.9A93.52,93.52,0,0,1,131.16,241L95,252.6l11.75-34.92a94,94,0,1,1,76.14,38.9Z"/><path class="cls-1" d="M156.67,116.27c-1.81-4.36-3.2-4.51-6-4.64-1,0-2-.09-3.14-.09-3.61,0-7.34,1.06-9.6,3.36-2.74,2.81-9.6,9.38-9.6,22.87s9.83,26.53,11.2,28.36,19.16,29.92,46.84,41.38c21.61,9,28,8.16,32.95,7.08,7.18-1.57,16.18-6.85,18.47-13.25s2.28-11.89,1.6-13-2.52-1.83-5.26-3.21-16.22-8-18.74-8.91a5.28,5.28,0,0,0-6.77,2,112.42,112.42,0,0,1-7.36,9.73,5.9,5.9,0,0,1-6.66,1,69.83,69.83,0,0,1-22-13.61,82.53,82.53,0,0,1-15.25-19c-1.6-2.74-.15-4.38,1.09-5.87,1.4-1.71,2.7-2.93,4.07-4.53a18.21,18.21,0,0,0,3-4.28,5.62,5.62,0,0,0-.38-5.09C164.44,135.25,159,121.77,156.67,116.27Z"/></svg>